<?xml version="1.0" encoding="UTF-8"?><svg id="a" xmlns="http://www.w3.org/2000/svg" viewBox="0 0 80 80"><defs><style>.b{fill:#fff;}.c{fill:#fcb716;}</style></defs><rect class="c" x="0" y="0" width="80" height="80" rx="9" ry="9"/><path class="b" d="M70.48,70.44s.02-.06.02-.1c0,0,0,0,0,0,0,0,0,0,0,0-.06-2.95-1.53-5.49-3.84-6.63-1.3-.64-2.59-.69-3.53-.6-.16-.27-.27-.55-.32-.85-.11-.59.16-1.08.53-1.76.17-.32.36-.66.52-1.04.42-.98.68-2.06.76-3.24v-4.34s0-.08-.01-.11c-.22-.97-.67-1.84-1.3-2.54-1.67-1.85-4.04-1.88-4.94-1.89-.84,0-3.39-.04-5.14,1.89-.63.69-1.08,1.57-1.3,2.54,0,.04-.01.08-.01.11v4.37c.08,1.15.34,2.23.76,3.21.17.39.35.73.52,1.04.37.68.63,1.17.53,1.76-.05.29-.16.58-.32.84-.38-.04-.75-.03-1.12-.02-.5-.43-1.03-.81-1.62-1.1-1.67-.82-3.33-.87-4.52-.74-.24-.38-.4-.78-.47-1.2-.15-.8.2-1.45.69-2.34.22-.4.45-.83.66-1.32.53-1.23.86-2.59.96-4.08v-5.54s0-.08-.01-.11c-.29-1.23-.84-2.3-1.63-3.18-2.19-2.42-5.41-2.38-6.46-2.37-1.12.01-4.11.05-6.21,2.37-.8.88-1.35,1.95-1.63,3.18,0,.04-.01.08-.01.11v5.57c.1,1.45.43,2.81.96,4.05.21.49.45.92.66,1.32.48.89.83,1.54.69,2.34-.08.42-.24.83-.47,1.2-1.19-.13-2.85-.08-4.52.74-.59.29-1.13.67-1.62,1.1-.37-.02-.74-.02-1.12.02-.16-.27-.27-.55-.32-.85-.11-.59.16-1.08.53-1.76.17-.32.36-.66.52-1.04.42-.98.68-2.05.76-3.24v-4.34s0-.08-.01-.11c-.23-.98-.67-1.83-1.3-2.54-1.75-1.93-4.31-1.91-5.14-1.89-.89.01-3.26.04-4.94,1.89-.63.69-1.08,1.57-1.3,2.54,0,.04-.01.08-.01.11v4.37c.08,1.15.34,2.23.76,3.21.17.39.35.73.52,1.04.37.68.63,1.17.53,1.76-.05.29-.16.58-.32.84-1.26-.13-2.47.08-3.53.6-2.31,1.14-3.78,3.68-3.84,6.63,0,0,0,0,0,0,0,0,0,0,0,0,0,.03.01.06.02.1,0,.03,0,.06.02.09.01.03.04.06.06.09.02.02.03.05.05.07.02.02.05.04.08.06.03.02.05.04.08.05.03.01.06.01.09.02.03,0,.06.02.1.02h60.02s.07-.01.1-.02c.03,0,.06,0,.09-.02.03-.01.05-.03.08-.05.03-.02.06-.03.08-.06.02-.02.03-.05.05-.07.02-.03.04-.06.06-.09.01-.03.01-.06.02-.09ZM53.58,64.14c.18.02.36-.05.47-.2.34-.46.56-.96.66-1.5.17-.94-.22-1.66-.63-2.42-.16-.29-.33-.61-.49-.97-.38-.87-.61-1.84-.68-2.84v-4.28c.19-.79.55-1.48,1.06-2.04,1.45-1.6,3.59-1.57,4.39-1.56.77,0,2.83.04,4.21,1.56.51.56.87,1.25,1.06,2.04v4.24c-.07,1.04-.3,2-.68,2.88-.16.36-.33.67-.49.97-.41.76-.8,1.48-.63,2.42.1.54.32,1.04.66,1.5.11.15.29.22.47.2.82-.12,2.05-.13,3.27.47,1.84.9,3.04,2.89,3.24,5.24h-14.02c-.14-2.21-.9-4.22-2.15-5.73.1,0,.19.01.29.03ZM29.78,62.89c1.59-.78,3.19-.77,4.25-.61.19.02.36-.05.47-.2.42-.57.69-1.19.81-1.85.21-1.15-.28-2.05-.79-3-.21-.38-.42-.78-.62-1.24-.49-1.13-.79-2.38-.88-3.69v-5.48c.25-1.04.72-1.94,1.39-2.68,1.8-2,4.47-2.03,5.48-2.04,1.05-.01,3.82-.05,5.7,2.04.67.74,1.13,1.64,1.39,2.68v5.44c-.09,1.34-.39,2.59-.88,3.72-.2.46-.42.87-.62,1.24-.51.95-1,1.85-.79,3,.12.66.39,1.28.81,1.85.11.15.29.22.47.2,1.06-.15,2.66-.17,4.25.61,2.43,1.19,4.01,3.83,4.22,6.95h-28.89c.21-3.12,1.79-5.76,4.22-6.95ZM13.78,64.61c1.22-.6,2.45-.59,3.27-.47.18.02.36-.05.47-.2.34-.46.56-.96.66-1.5.17-.94-.22-1.66-.63-2.42-.16-.29-.33-.61-.48-.96-.38-.87-.61-1.84-.68-2.84v-4.28c.19-.79.55-1.48,1.06-2.04,1.38-1.52,3.43-1.55,4.21-1.56.8-.02,2.94-.04,4.38,1.56.51.56.86,1.25,1.06,2.04v4.24c-.07,1.04-.3,2.01-.68,2.88-.16.36-.33.67-.48.96-.41.76-.8,1.48-.63,2.42.1.54.32,1.04.66,1.5.11.15.29.22.47.2.1-.01.19-.02.28-.03-1.25,1.52-2.01,3.52-2.15,5.73h-14.02c.2-2.35,1.4-4.34,3.24-5.24ZM32.44,34.31h4.59l2.54,4.4c.09.15.25.25.43.25s.34-.1.43-.25l2.54-4.4h4.59c2.67,0,4.84-2.17,4.84-4.84v-15.13c0-2.67-2.17-4.84-4.84-4.84h-15.13c-2.67,0-4.84,2.17-4.84,4.84v15.13c0,2.67,2.17,4.84,4.84,4.84ZM28.59,14.34c0-2.12,1.72-3.84,3.84-3.84h15.13c2.12,0,3.84,1.72,3.84,3.84v15.13c0,2.12-1.72,3.84-3.84,3.84h-4.88c-.18,0-.34.1-.43.25l-2.25,3.9-2.25-3.9c-.09-.15-.25-.25-.43-.25h-4.88c-2.12,0-3.84-1.72-3.84-3.84v-15.13ZM9.51,35.87v-14.77c0-2.62,2.13-4.74,4.74-4.74h12.03c.28,0,.5.22.5.5s-.22.5-.5.5h-12.03c-2.06,0-3.74,1.68-3.74,3.74v14.77c0,2.06,1.68,3.74,3.74,3.74h4.76c.18,0,.34.1.43.25l2.19,3.79,2.19-3.79c.09-.15.25-.25.43-.25h4.76c2.06,0,3.74-1.68,3.74-3.74,0-.28.22-.5.5-.5s.5.22.5.5c0,2.62-2.13,4.74-4.74,4.74h-4.47l-2.48,4.29c-.09.15-.25.25-.43.25s-.34-.1-.43-.25l-2.48-4.29h-4.47c-2.62,0-4.74-2.13-4.74-4.74ZM53.27,16.85c0-.28.22-.5.5-.5h11.97c2.62,0,4.74,2.13,4.74,4.74v14.77c0,2.62-2.13,4.74-4.74,4.74h-4.47l-2.48,4.29c-.09.15-.25.25-.43.25s-.34-.1-.43-.25l-2.48-4.29h-4.47c-2.62,0-4.74-2.13-4.74-4.74,0-.28.22-.5.5-.5s.5.22.5.5c0,2.06,1.68,3.74,3.74,3.74h4.76c.18,0,.34.1.43.25l2.19,3.79,2.19-3.79c.09-.15.25-.25.43-.25h4.76c2.06,0,3.74-1.68,3.74-3.74v-14.77c0-2.06-1.68-3.74-3.74-3.74h-11.97c-.28,0-.5-.22-.5-.5ZM15.57,28.44h10.7v1h-10.17c.14,1.37.76,2.64,1.79,3.6,1.1,1.04,2.58,1.59,4.03,1.52,1.52-.07,2.98-.82,3.98-2.04l.77.64c-1.19,1.44-2.9,2.31-4.71,2.4-.1,0-.2,0-.29,0-1.63,0-3.24-.65-4.47-1.8-1.35-1.27-2.11-2.98-2.13-4.83,0-.13.05-.26.14-.36.09-.1.22-.15.36-.15ZM17.99,25.99c-.8,0-1.46-.65-1.46-1.46s.65-1.46,1.46-1.46,1.46.65,1.46,1.46-.65,1.46-1.46,1.46ZM25.37,25.99c-.8,0-1.46-.65-1.46-1.46s.65-1.46,1.46-1.46h0c.34,0,.66.12.9.31v2.29c-.25.2-.56.31-.9.31h0ZM64.62,26.55c-.18-1.62-.84-2.33-1.36-2.64-1-.6-2.37-.27-3.05.09-.56.3-1.03.88-1.39,1.74-.16.37-.76.37-.92,0-.37-.85-.83-1.44-1.39-1.74-.46-.24-1.58-.62-2.58-.3-.26.08-.54-.06-.63-.32-.08-.26.06-.54.33-.63,1.23-.39,2.58-.04,3.36.38.53.28.99.74,1.38,1.34.39-.61.85-1.06,1.38-1.34.82-.44,2.59-.94,4.04-.07.71.43,1.61,1.37,1.83,3.39.52,4.67-6.27,8.64-6.96,9.03-.03.02-.06.04-.1.06-.06.03-.13.04-.2.04-.01,0-.03,0-.04,0-.05,0-.11-.02-.15-.04-.04-.02-.08-.04-.11-.06-.45-.25-2.8-1.63-4.65-3.62-.19-.2-.18-.52.03-.71.2-.19.52-.18.71.03,1.56,1.67,3.54,2.92,4.22,3.32,1.21-.72,6.68-4.22,6.26-7.94ZM33.68,28.4h2.95c.58,0,1.06-.47,1.06-1.06v-.15l1.44,1c.08.06.18.09.29.09h6.64c.25,0,.47-.19.5-.44l.82-6.94c.02-.14-.03-.28-.12-.39-.09-.11-.23-.17-.37-.17h-2.86c.86-2.02.73-3.94-.38-4.66-.31-.2-1.01-.46-2.2-.02-.2.07-.33.26-.32.48.03,2.01-.86,3.71-2.23,4.24-.36.14-.77.17-1.19.14v-.2c0-.58-.47-1.06-1.06-1.06h-2.95c-.58,0-1.06.47-1.06,1.06v7.02c0,.58.47,1.06,1.06,1.06ZM39.24,21.31c1.69-.65,2.79-2.52,2.86-4.81.61-.16.91-.03.99.03.58.37.8,2.04-.32,4.08-.08.15-.08.34,0,.49.09.15.25.24.43.24h3.09l-.7,5.94h-6.04l-1.88-1.31v-4.42c.55.03,1.07-.05,1.56-.24ZM33.68,20.26l3,.06v7.02s-.03.06-.06.06l-3.01-.06.06-7.08Z"/></svg>