<?xml version="1.0" encoding="UTF-8"?><svg id="a" xmlns="http://www.w3.org/2000/svg" viewBox="0 0 80 80"><defs><style>.b{fill:#fff;}.c{fill:#fcb716;}</style></defs><rect class="c" y="0" width="80" height="80" rx="9" ry="9"/><path class="b" d="M38.93,53.37l-3.7-5.62c1.01-.77,1.28-2.2.57-3.28l-.12-.19c-.36-.54-.91-.92-1.55-1.05-.59-.12-1.18-.02-1.69.27l-3.84-5.83c-.09-.14-.24-.22-.41-.23-.16,0-.32.07-.42.21l-7.58,10.53-10.48,6.9c-.11.07-.19.19-.21.32-.03.13,0,.26.07.38l5.34,8.11c.07.11.19.19.32.21.03,0,.07.01.1.01.1,0,.19-.03.28-.08l2.22-1.46,5.06,7.69c.1.15.26.22.42.22.09,0,.19-.03.28-.08l2.64-1.74c.11-.07.19-.19.21-.32.03-.13,0-.26-.07-.38l-3.76-5.71,4.86-3.2c.23-.15.29-.46.14-.69l-.91-1.39,11.92-2.86c.16-.04.29-.15.35-.3s.04-.32-.05-.46ZM33.93,44.22c.38.08.7.3.91.62l.12.19c.21.32.29.71.21,1.08-.07.32-.24.61-.49.81l-1.7-2.58c.29-.15.62-.19.94-.12ZM15.49,62.93l-2.12-3.22,2.22-1.46c.23-.15.29-.46.14-.69-.15-.23-.46-.29-.69-.14l-2.22,1.46-2.12-3.22,9.72-6.4,4.79,7.27-4.86,3.2-2.64,1.74s0,0,0,0l-2.22,1.46ZM23.46,69.3l-4.79-7.27,1.8-1.19,1.03,1.56s0,0,0,0l3.76,5.71-1.8,1.19ZM22.07,61.44l-.75-1.14.16-.1,4.28-2.82.75,1.14-4.44,2.92ZM26.12,56.11l-4.96-7.53,7-9.73,3.7,5.62s0,0,0,0l2.26,3.43s0,0,0,0l3.57,5.42-11.58,2.78ZM68.04,41.55h-1.75c-.25-4.47-3.84-8.06-8.31-8.31v-1.75c0-.28-.22-.5-.5-.5s-.5.22-.5.5v1.75c-4.47.25-8.06,3.84-8.31,8.31h-1.75c-.28,0-.5.22-.5.5s.22.5.5.5h1.75c.25,4.47,3.84,8.06,8.31,8.31v1.75c0,.28.22.5.5.5s.5-.22.5-.5v-1.75c4.47-.25,8.06-3.84,8.31-8.31h1.75c.28,0,.5-.22.5-.5s-.22-.5-.5-.5ZM57.98,49.86v-1.7c0-.28-.22-.5-.5-.5s-.5.22-.5.5v1.7c-3.92-.25-7.06-3.39-7.31-7.31h1.7c.28,0,.5-.22.5-.5s-.22-.5-.5-.5h-1.7c.25-3.92,3.39-7.06,7.31-7.31v1.7c0,.28.22.5.5.5s.5-.22.5-.5v-1.7c3.92.25,7.06,3.39,7.31,7.31h-1.7c-.28,0-.5.22-.5.5s.22.5.5.5h1.7c-.25,3.92-3.39,7.06-7.31,7.31ZM66.7,32.82c-2.45-2.45-5.71-3.8-9.17-3.8s-6.72,1.35-9.17,3.8c-2.47,2.47-3.81,5.75-3.79,9.25l-3.64,2.52c-.14.1-.22.27-.21.44.01.17.11.33.26.41l5.14,2.72c.59,1.1,1.35,2.1,2.24,3,2.45,2.45,5.71,3.8,9.17,3.8s6.72-1.35,9.17-3.8c5.06-5.06,5.06-13.28,0-18.34ZM66,50.45c-2.26,2.26-5.27,3.51-8.46,3.51s-6.2-1.25-8.46-3.51c-.86-.86-1.57-1.83-2.13-2.89-.05-.09-.12-.16-.21-.21l-4.55-2.41,3.08-2.13s.02,0,.03-.01c.18-.08.3-.27.29-.47-.09-3.33,1.14-6.46,3.49-8.8,2.26-2.26,5.27-3.51,8.46-3.51s6.2,1.25,8.46,3.51c4.67,4.67,4.67,12.26,0,16.93ZM59.2,41.37c.42-.43.68-1.02.68-1.67,0-1.32-1.07-2.39-2.39-2.39s-2.39,1.07-2.39,2.39c0,.66.27,1.26.71,1.7-.64.37-1.07,1.06-1.07,1.85v2.23c0,.25.18.46.42.49.78.12,1.58.19,2.37.19.76,0,1.59-.06,2.38-.19.24-.04.42-.25.42-.49v-2.23c0-.81-.46-1.51-1.13-1.88ZM57.49,38.31c.77,0,1.39.62,1.39,1.39s-.62,1.39-1.39,1.39-1.39-.62-1.39-1.39.62-1.39,1.39-1.39ZM59.33,45.05c-.59.08-1.18.11-1.77.11-.59,0-1.22-.04-1.82-.11v-1.8c0-.64.52-1.15,1.15-1.15h1.28c.64,0,1.15.52,1.15,1.15v1.8ZM47.57,54.69c-2.09,0-4.05.81-5.54,2.28l-2.48-.45c-.17-.03-.35.03-.46.16-.12.13-.16.31-.1.48l1,3.24c-.21.71-.31,1.45-.31,2.2,0,4.36,3.54,7.9,7.9,7.9s7.9-3.54,7.9-7.9-3.55-7.9-7.9-7.9ZM47.57,69.5c-3.81,0-6.9-3.1-6.9-6.9,0-.7.1-1.39.31-2.05.03-.1.03-.2,0-.29l-.8-2.6,1.85.33s.01,0,.02,0c.18.06.39,0,.52-.13,1.32-1.4,3.1-2.17,5.01-2.17,3.81,0,6.9,3.1,6.9,6.9s-3.1,6.9-6.9,6.9ZM53.88,25.44c-.07.16-.04.35.06.49s.27.22.45.2l3.38-.32c.66.34,1.36.6,2.09.75.54.11,1.07.16,1.6.16,3.67,0,6.97-2.58,7.74-6.31.88-4.27-1.88-8.46-6.15-9.33-2.07-.43-4.18-.02-5.94,1.14-1.76,1.16-2.97,2.94-3.39,5.01-.42,2.05-.03,4.13,1.11,5.89l-.94,2.34ZM54.69,17.41c.37-1.81,1.42-3.36,2.96-4.37,1.54-1.01,3.38-1.37,5.19-1,3.73.77,6.14,4.42,5.37,8.15-.77,3.73-4.42,6.14-8.15,5.37-.68-.14-1.34-.38-1.94-.72-.07-.04-.16-.06-.24-.06-.02,0-.03,0-.05,0l-2.71.26.7-1.73s0,0,0,0c.11-.17.1-.39-.01-.55-1.1-1.57-1.5-3.47-1.11-5.35ZM17.41,40.39c.75,0,1.48-.1,2.19-.31l3.24,1s.1.02.15.02c.12,0,.24-.04.33-.13.13-.12.19-.29.16-.46l-.45-2.48c1.47-1.49,2.28-3.45,2.28-5.54,0-4.36-3.54-7.9-7.9-7.9s-7.9,3.55-7.9,7.9,3.55,7.9,7.9,7.9ZM17.41,25.59c3.81,0,6.9,3.1,6.9,6.9,0,1.91-.77,3.69-2.17,5.01-.14.13-.19.33-.13.52l.34,1.87-2.6-.8s-.1-.02-.15-.02-.1,0-.15.02c-.66.21-1.35.31-2.05.31-3.81,0-6.9-3.1-6.9-6.9s3.1-6.9,6.9-6.9ZM37.45,31.34v1.75c0,.28.22.5.5.5s.5-.22.5-.5v-1.75c4.47-.25,8.06-3.84,8.31-8.31h1.75c.28,0,.5-.22.5-.5s-.22-.5-.5-.5h-1.75c-.25-4.47-3.84-8.06-8.31-8.31v-1.75c0-.28-.22-.5-.5-.5s-.5.22-.5.5v1.75c-4.47.25-8.06,3.84-8.31,8.31h-1.75c-.28,0-.5.22-.5.5s.22.5.5.5h1.75c.25,4.47,3.84,8.06,8.31,8.31ZM37.45,14.71v1.7c0,.28.22.5.5.5s.5-.22.5-.5v-1.7c3.92.25,7.06,3.39,7.31,7.31h-1.7c-.28,0-.5.22-.5.5s.22.5.5.5h1.7c-.25,3.92-3.39,7.06-7.31,7.31v-1.7c0-.28-.22-.5-.5-.5s-.5.22-.5.5v1.7c-3.92-.25-7.06-3.39-7.31-7.31h1.7c.28,0,.5-.22.5-.5s-.22-.5-.5-.5h-1.7c.25-3.92,3.39-7.06,7.31-7.31ZM31.83,33.87l2.72,5.14c.08.15.24.25.41.27,0,0,.02,0,.03,0,.16,0,.32-.08.41-.22l2.52-3.64s.06,0,.09,0c3.47,0,6.71-1.34,9.16-3.79,5.06-5.06,5.06-13.28,0-18.34s-13.28-5.06-18.34,0-5.06,13.28,0,18.34c.89.89,1.9,1.64,3,2.24ZM29.55,14c2.33-2.33,5.4-3.5,8.46-3.5s6.13,1.17,8.46,3.5c4.67,4.67,4.67,12.26,0,16.93-2.34,2.34-5.46,3.59-8.8,3.49-.19,0-.37.11-.46.29,0,0,0,0,0,0l-2.15,3.11-2.41-4.55c-.05-.09-.12-.16-.21-.21-1.06-.56-2.04-1.28-2.89-2.13-4.67-4.67-4.67-12.26,0-16.93ZM35.6,26.76c.78.12,1.58.19,2.38.19h.02c.79,0,1.58-.06,2.35-.19.24-.04.42-.25.42-.49v-2.23c0-.81-.46-1.52-1.13-1.88.42-.43.68-1.02.68-1.67,0-1.32-1.07-2.39-2.39-2.39s-2.39,1.07-2.39,2.39c0,.66.27,1.26.71,1.7-.64.37-1.07,1.06-1.07,1.85v2.23c0,.25.18.46.42.49ZM37.94,19.09c.77,0,1.39.62,1.39,1.39s-.62,1.39-1.39,1.39-1.39-.62-1.39-1.39.62-1.39,1.39-1.39ZM36.18,24.03c0-.64.52-1.15,1.15-1.15h1.29c.64,0,1.15.52,1.15,1.15v1.8c-.58.07-1.18.11-1.77.11-.61,0-1.22-.04-1.82-.11v-1.8ZM12.7,30.99c0-.28.22-.5.5-.5h3.96c.28,0,.5.22.5.5s-.22.5-.5.5h-3.96c-.28,0-.5-.22-.5-.5ZM12.7,32.84c0-.28.22-.5.5-.5h8.41c.28,0,.5.22.5.5s-.22.5-.5.5h-8.41c-.28,0-.5-.22-.5-.5ZM17.97,30.99c0-.28.22-.5.5-.5h3.15c.28,0,.5.22.5.5s-.22.5-.5.5h-3.15c-.28,0-.5-.22-.5-.5ZM22.11,34.7c0,.28-.22.5-.5.5h-6.09c-.28,0-.5-.22-.5-.5s.22-.5.5-.5h6.09c.28,0,.5.22.5.5ZM12.7,34.7c0-.28.22-.5.5-.5h.92c.28,0,.5.22.5.5s-.22.5-.5.5h-.92c-.28,0-.5-.22-.5-.5ZM51.92,60.74c0,.28-.22.5-.5.5h-3.96c-.28,0-.5-.22-.5-.5s.22-.5.5-.5h3.96c.28,0,.5.22.5.5ZM51.92,62.59c0,.28-.22.5-.5.5h-8.41c-.28,0-.5-.22-.5-.5s.22-.5.5-.5h8.41c.28,0,.5.22.5.5ZM42.51,60.74c0-.28.22-.5.5-.5h3.15c.28,0,.5.22.5.5s-.22.5-.5.5h-3.15c-.28,0-.5-.22-.5-.5ZM49.6,64.45c0,.28-.22.5-.5.5h-6.09c-.28,0-.5-.22-.5-.5s.22-.5.5-.5h6.09c.28,0,.5.22.5.5ZM51.92,64.45c0,.28-.22.5-.5.5h-.92c-.28,0-.5-.22-.5-.5s.22-.5.5-.5h.92c.28,0,.5.22.5.5ZM56.74,16.95c0-.28.22-.5.5-.5h3.96c.28,0,.5.22.5.5s-.22.5-.5.5h-3.96c-.28,0-.5-.22-.5-.5ZM56.74,18.8c0-.28.22-.5.5-.5h8.41c.28,0,.5.22.5.5s-.22.5-.5.5h-8.41c-.28,0-.5-.22-.5-.5ZM62.01,16.95c0-.28.22-.5.5-.5h3.15c.28,0,.5.22.5.5s-.22.5-.5.5h-3.15c-.28,0-.5-.22-.5-.5ZM66.16,20.65c0,.28-.22.5-.5.5h-6.09c-.28,0-.5-.22-.5-.5s.22-.5.5-.5h6.09c.28,0,.5.22.5.5ZM56.74,20.65c0-.28.22-.5.5-.5h.92c.28,0,.5.22.5.5s-.22.5-.5.5h-.92c-.28,0-.5-.22-.5-.5Z"/></svg>