<?xml version="1.0" encoding="UTF-8"?><svg id="a" xmlns="http://www.w3.org/2000/svg" viewBox="0 0 80 80"><defs><style>.b{stroke-miterlimit:10;}.b,.c{fill:none;stroke:#fff;}.c{stroke-linecap:round;stroke-linejoin:round;}.d{fill:#fcb716;}</style></defs><rect class="d" y="0" width="80" height="80" rx="9" ry="9"/><path class="c" d="M20.26,66.81h39.48v.09c0,1.71-1.39,3.09-3.09,3.09H23.35c-1.71,0-3.09-1.39-3.09-3.09v-.09h0Z"/><polyline class="c" points="24.41 66.81 24.41 45.17 55.59 45.17 55.59 66.81"/><line class="c" x1="28.88" y1="70" x2="28.88" y2="66.81"/><line class="c" x1="51.12" y1="70" x2="51.12" y2="66.81"/><polygon class="c" points="35.85 36.07 39.48 27.88 40.59 33.96 44.15 35.55 39.56 42.92 39.56 37 35.85 36.07"/><path class="b" d="M44.44,41.83v9.48c0,2.54-2.06,4.59-4.59,4.59s-4.59-2.06-4.59-4.59v-9.48h-4.41v9.15c0,5.05,4.1,9.15,9.15,9.15h0c5.05,0,9.15-4.1,9.15-9.15v-9.15h-4.7Z"/><line class="c" x1="30.85" y1="45.17" x2="35.26" y2="45.17"/><line class="c" x1="44.44" y1="45.41" x2="49.15" y2="45.41"/><circle class="b" cx="40" cy="16.8" r="6.8"/><circle class="c" cx="40.07" cy="16" r="3.15"/><path class="c" d="M36.18,22.42v-.52c0-1.51,1.24-2.75,2.75-2.75h2.14c1.51,0,2.75,1.24,2.75,2.75v.52"/><circle class="b" cx="61.34" cy="27.59" r="6.8"/><circle class="c" cx="61.41" cy="26.79" r="3.15"/><path class="c" d="M57.52,33.21v-.52c0-1.51,1.24-2.75,2.75-2.75h2.14c1.51,0,2.75,1.24,2.75,2.75v.52"/><circle class="b" cx="18.66" cy="27.59" r="6.8"/><circle class="c" cx="18.73" cy="26.79" r="3.15"/><path class="c" d="M14.84,33.21v-.52c0-1.51,1.24-2.75,2.75-2.75h2.14c1.51,0,2.75,1.24,2.75,2.75v.52"/><path class="c" d="M20.26,57.45c-3.57-4.37-5.7-9.96-5.7-16.04,0-1.69.16-3.34.48-4.94"/><path class="c" d="M64.89,36.47c.31,1.6.48,3.25.48,4.94,0,6.08-2.14,11.67-5.7,16.04"/><path class="c" d="M49.15,17.71c2.03.79,3.93,1.83,5.66,3.08"/><path class="c" d="M25.34,20.62c1.69-1.19,3.54-2.19,5.51-2.94"/></svg>