<?xml version="1.0" encoding="UTF-8"?><svg id="a" xmlns="http://www.w3.org/2000/svg" viewBox="0 0 80 80"><defs><style>.b{fill:#fff;}.c{fill:#fcb716;}</style></defs><rect class="c" x="-.01" y="0" width="80" height="80" rx="9" ry="9"/><path class="b" d="M40,21.37c-10.25,0-18.58,8.33-18.58,18.58s8.33,18.58,18.58,18.58,18.58-8.33,18.58-18.58-8.33-18.58-18.58-18.58ZM40,57.53c-9.69,0-17.58-7.89-17.58-17.58s7.89-17.58,17.58-17.58,17.58,7.89,17.58,17.58-7.89,17.58-17.58,17.58ZM31.82,42h-4.15c-.28,0-.5.22-.5.5v7.64c0,.28.22.5.5.5h4.15c.28,0,.5-.22.5-.5v-7.64c0-.28-.22-.5-.5-.5ZM31.32,49.64h-3.15v-6.64h3.15v6.64ZM45.5,39.13h-4.15c-.28,0-.5.22-.5.5v10.51c0,.28.22.5.5.5h4.15c.28,0,.5-.22.5-.5v-10.51c0-.28-.22-.5-.5-.5ZM45,49.64h-3.15v-9.51h3.15v9.51ZM52.33,35.89h-4.15c-.28,0-.5.22-.5.5v13.75c0,.28.22.5.5.5h4.15c.28,0,.5-.22.5-.5v-13.75c0-.28-.22-.5-.5-.5ZM51.83,49.64h-3.15v-12.75h3.15v12.75ZM38.66,38.28h-4.15c-.28,0-.5.22-.5.5v11.36c0,.28.22.5.5.5h4.15c.28,0,.5-.22.5-.5v-11.36c0-.28-.22-.5-.5-.5ZM38.16,49.64h-3.15v-10.36h3.15v10.36ZM43.23,35.57l-6.73-2.81-6.43,5.66c-.09.08-.21.12-.33.12-.14,0-.28-.06-.38-.17-.18-.21-.16-.52.05-.71l6.67-5.86c.14-.13.35-.16.52-.09l6.69,2.79,3.76-4.15h-.71c-.28,0-.5-.22-.5-.5s.22-.5.5-.5h1.84c.09,0,.17.03.24.07.02.01.03.02.05.03.07.05.12.11.16.18,0,0,0,0,0,0,0,0,0,0,0,0,.03.06.04.13.04.2v1.8c0,.28-.22.5-.5.5s-.5-.22-.5-.5v-.5l-3.88,4.29c-.14.16-.37.21-.56.13ZM59.44,55.24l-1.7-2.69,3.68-8.88,3.1-.7c.23-.05.39-.25.39-.49v-4.96c0-.23-.16-.44-.39-.49l-3.1-.7-3.68-8.88,1.7-2.69c.12-.2.1-.46-.07-.62l-3.51-3.51c-.17-.17-.42-.19-.62-.07l-2.69,1.7-8.88-3.68-.7-3.1c-.05-.23-.25-.39-.49-.39h-4.96c-.23,0-.44.16-.49.39l-.7,3.1-8.88,3.68-2.69-1.7c-.2-.12-.45-.1-.62.07l-3.51,3.51c-.17.17-.19.42-.07.62l1.7,2.69-3.68,8.88-3.1.7c-.23.05-.39.25-.39.49v4.96c0,.23.16.44.39.49l3.1.7,3.68,8.88-1.7,2.69c-.12.2-.1.46.07.62l3.51,3.51c.17.17.42.19.62.07l2.69-1.7,8.88,3.68.7,3.1c.05.23.25.39.49.39h4.96c.23,0,.44-.16.49-.39l.7-3.1,8.88-3.68,2.69,1.7c.2.12.45.1.62-.07l3.51-3.51c.17-.17.19-.42.07-.62ZM55.43,58.38l-2.57-1.62c-.14-.09-.31-.1-.46-.04l-9.36,3.88c-.15.06-.26.19-.3.35l-.67,2.96h-4.16l-.67-2.96c-.04-.16-.15-.29-.3-.35l-9.36-3.88c-.15-.06-.32-.05-.46.04l-2.57,1.62-2.94-2.95,1.62-2.57c.09-.14.1-.31.04-.46l-3.88-9.36c-.06-.15-.19-.26-.35-.3l-2.96-.67v-4.16l2.96-.67c.16-.04.29-.15.35-.3l3.88-9.36c.06-.15.05-.32-.04-.46l-1.62-2.57,2.94-2.94,2.57,1.62c.14.09.31.1.46.04l9.36-3.88c.15-.06.26-.19.3-.35l.67-2.96h4.16l.67,2.96c.04.16.15.29.3.35l9.36,3.88c.15.06.32.05.46-.04l2.57-1.62,2.95,2.94-1.62,2.57c-.09.14-.1.31-.04.46l3.88,9.36c.06.15.19.26.35.3l2.96.67v4.16l-2.96.67c-.16.04-.29.15-.35.3l-3.88,9.36c-.06.15-.05.32.04.46l1.62,2.57-2.95,2.95ZM52.84,67.33s0,.01,0,.02c0,.08,0,.16-.05.23l-1.33,2.65c-.09.17-.26.27-.45.27-.08,0-.15-.02-.23-.05-.25-.12-.34-.42-.22-.67l.72-1.43c-3.58,1.43-7.37,2.16-11.28,2.16-16.82,0-30.5-13.68-30.5-30.5,0-9.7,4.68-18.92,12.53-24.65.22-.16.54-.11.7.11.16.22.11.54-.11.7-7.59,5.54-12.12,14.45-12.12,23.84,0,16.27,13.23,29.5,29.5,29.5,3.78,0,7.44-.7,10.91-2.08l-1.52-.49c-.26-.08-.41-.37-.32-.63s.37-.41.63-.32l2.8.9s.01.01.02.02c.02,0,.03,0,.05.01.07.03.12.08.16.14,0,0,0,.02.02.03.05.07.07.14.08.22,0,.01.01.02.01.03ZM70.5,40c0,9.7-4.68,18.92-12.53,24.65-.09.06-.19.1-.29.1-.15,0-.31-.07-.4-.21-.16-.22-.11-.54.11-.7,7.59-5.54,12.12-14.45,12.12-23.84,0-16.27-13.23-29.5-29.5-29.5-3.78,0-7.44.7-10.91,2.08l1.52.49c.26.08.41.37.32.63-.08.26-.37.41-.63.32l-2.8-.9s-.02-.01-.03-.02c-.01,0-.03,0-.05-.01-.07-.03-.12-.08-.16-.14,0,0,0-.02-.01-.03-.05-.07-.07-.14-.08-.22,0-.01-.01-.02-.01-.03,0,0,0-.01,0-.02,0-.08,0-.16.05-.23l1.33-2.65c.12-.25.42-.35.67-.22.25.12.34.42.22.67l-.72,1.43c3.58-1.43,7.37-2.16,11.28-2.16,16.82,0,30.5,13.68,30.5,30.5Z"/></svg>