<?xml version="1.0" encoding="UTF-8"?><svg id="a" xmlns="http://www.w3.org/2000/svg" viewBox="0 0 80 80"><defs><style>.b{fill:#fff;}.c{fill:#fcb716;}</style></defs><rect class="c" x="0" width="80" height="80" rx="9" ry="9"/><path class="b" d="M69.4,40.16c.01-.38.04-.75.04-1.13,0-5-1.28-9.92-3.69-14.26,1.55-1.26,2.54-3.18,2.54-5.32,0-3.79-3.08-6.87-6.87-6.87-1.93,0-3.67.8-4.92,2.09-4.88-3.31-10.56-5.06-16.49-5.06-.71,0-1.41.03-2.1.08-.17.01-.33.02-.5.04-.67.06-1.34.14-1.99.24-.14.02-.27.05-.4.07-.57.1-1.14.21-1.7.35-.15.04-.3.07-.46.11-.65.16-1.29.35-1.92.56-.12.04-.25.08-.37.13-11.61,3.95-19.98,14.95-19.98,27.87,0,5.43,1.49,10.73,4.31,15.34.09.15.26.24.43.24.09,0,.18-.02.26-.07.24-.14.31-.45.17-.69-2.72-4.45-4.16-9.58-4.16-14.82,0-5.68,1.68-10.97,4.56-15.41l7.42,5.11c-1.8,2.93-2.86,6.37-2.86,10.06,0,2.29.4,4.53,1.18,6.65.09.26.38.39.64.3.26-.1.39-.38.3-.64-.74-2.02-1.12-4.14-1.12-6.31,0-10.1,8.21-18.31,18.31-18.31s18.31,8.22,18.31,18.31c0,2.17-.38,4.29-1.12,6.31-.09.26.04.55.3.64.06.02.11.03.17.03.2,0,.4-.12.47-.33.56-1.52.91-3.09,1.07-4.7h9.17c-.28,4.65-1.68,9.15-4.11,13.12-.14.24-.07.54.17.69.08.05.17.07.26.07.17,0,.33-.08.43-.24,2.59-4.24,4.05-9.07,4.27-14.04,0-.03.02-.07.02-.1,0-.03-.01-.05-.01-.07ZM39.5,19.49c-6.4.16-12.03,3.44-15.42,8.38l-7.4-5.09c1.74-2.49,3.86-4.7,6.29-6.52.04-.02.08-.01.11-.04,2.4-1.8,5.03-3.18,7.8-4.13.11-.04.23-.08.34-.12.62-.2,1.24-.38,1.87-.54.14-.04.29-.07.43-.1.55-.13,1.1-.24,1.65-.34.13-.02.25-.05.38-.07.64-.1,1.28-.18,1.93-.23.16-.01.32-.03.48-.04.51-.04,1.02-.05,1.53-.06v8.88ZM61.41,13.57c3.24,0,5.87,2.63,5.87,5.87s-2.63,5.87-5.87,5.87-5.87-2.63-5.87-5.87,2.63-5.87,5.87-5.87ZM59.27,39.73c.02-.32.04-.63.04-.95,0-10.48-8.4-19.02-18.81-19.29v-8.88c2.72.05,5.41.47,7.98,1.28.02,0,.05,0,.07,0,2.57.81,5.02,2,7.29,3.53-.82,1.13-1.3,2.51-1.3,4.01,0,3.79,3.08,6.87,6.87,6.87,1.28,0,2.48-.36,3.51-.97,2.3,4.18,3.52,8.89,3.52,13.69,0,.24-.02.47-.02.7h-9.14ZM60.49,48.02l-11.87,4.23c-.26.09-.39.38-.3.64l.21.61-4.67-1.78c-.42-.08-3.19-.56-5.85.46l-6.77.63.45-1.29c.05-.13.04-.28-.03-.4-.07-.12-.18-.21-.32-.25l-11.88-2.85c-.15-.04-.31,0-.43.09-.12.09-.19.24-.19.39v14.24c0,.28.22.5.5.5h7.91c.21,0,.4-.13.47-.33l.4-1.13c4.69,4.56,8.51,7.81,9.81,8.33.77.3,1.48.32,1.6.32h0c.66,0,1.31-.18,1.93-.51.34.16.69.26,1.05.26.43,0,.85-.11,1.21-.34.61-.39.86-.96.96-1.3.22.06.44.09.66.09.43,0,.85-.11,1.21-.34.64-.41.88-1.01.97-1.34.09.01.18.02.27.02.45,0,.9-.14,1.28-.43.59-.46.86-1.21.76-1.94l2.2-1.03.26.74c.07.2.26.33.47.33h7.89c.28,0,.5-.22.5-.5v-15.63c0-.16-.08-.31-.21-.41-.13-.09-.3-.12-.46-.06ZM27.44,60.67s0,0,0,0l-.54,1.56h-7.05v-13.11l10.73,2.57-.53,1.52s0,0,0,0l-2.6,7.46ZM49.42,63.67c-.64-.76-1.32-1.5-2.02-2.19-1.39-1.37-2.91-2.62-4.53-3.73-.22-.15-.54-.1-.69.13-.16.23-.1.54.13.69,1.57,1.07,3.05,2.28,4.39,3.61.75.74,1.46,1.52,2.13,2.33.14.44,0,.93-.36,1.2-.4.31-.98.3-1.35,0-.6-.61-1.28-1.3-1.97-1.99-.68-.69-1.36-1.37-1.96-1.98-.19-.2-.51-.2-.71,0-.2.19-.2.51,0,.71.6.61,1.28,1.3,1.97,1.99.68.69,1.36,1.37,2,2.02.05.04.1.07.16.11,0,0,0,.01,0,.02-.04.17-.17.58-.57.83-.41.26-.97.25-1.43-.02l-3.54-3.63c-.19-.2-.51-.2-.71,0-.2.19-.2.51,0,.71l3.48,3.57s-.04.07-.05.1c-.04.17-.17.58-.57.84-.41.26-.97.25-1.43-.02l-3.54-3.63c-.19-.2-.51-.2-.71,0-.2.19-.2.51,0,.71l3.1,3.18c-.36.14-.72.21-1.08.22-.01,0-.62,0-1.23-.25-.97-.39-4.45-3.2-9.82-8.44l2.41-6.89,5.05-.47c-.3.24-.58.5-.85.81-.74.85-1.27,1.87-1.57,3.03-.04.13-.01.28.06.4.25.4.82,1.1,1.8,1.37.24.07.49.1.75.1.96,0,1.94-.46,2.62-1.28.41-.05.81-.15,1.18-.31.48-.19.92-.46,1.31-.8.21-.18.23-.5.05-.71-.18-.21-.49-.23-.71-.05-.31.27-.66.48-1.04.63-.35.14-.72.23-1.11.26-.14.01-.28.08-.36.2-.62.82-1.6,1.22-2.45.99-.53-.14-.88-.49-1.09-.76.27-.92.71-1.73,1.3-2.41,2.7-3.11,7.62-2.19,7.75-2.17l5.03,1.93c.1.04.21.03.31,0l2.79,8-2.29,1.07ZM60.16,63.61h-7.04l-3.7-10.59,10.74-3.83v14.42ZM58.58,21.5l4.62-4.62c.2-.2.51-.2.71,0s.2.51,0,.71l-4.62,4.62c-.1.1-.23.15-.35.15s-.26-.05-.35-.15c-.2-.2-.2-.51,0-.71ZM59.42,18.94c.83,0,1.5-.67,1.5-1.5s-.67-1.5-1.5-1.5-1.5.67-1.5,1.5.67,1.5,1.5,1.5ZM59.42,16.95c.28,0,.5.22.5.5s-.22.5-.5.5-.5-.22-.5-.5.22-.5.5-.5ZM61.9,21.43c0,.83.67,1.5,1.5,1.5s1.5-.67,1.5-1.5-.67-1.5-1.5-1.5-1.5.67-1.5,1.5ZM63.9,21.43c0,.28-.22.5-.5.5s-.5-.22-.5-.5.22-.5.5-.5.5.22.5.5ZM33.72,35.67c-.17-.05-.36,0-.49.12l-5.75,5.66c-.13.13-.18.32-.13.5l1.04,3.44c.05.17.18.3.35.34.04.01.08.02.12.02.13,0,.26-.05.35-.14l5.54-5.45,8.36,2.5c.18.05.37,0,.5-.13l6.04-6.1,2.19,1.97c.15.13.36.17.54.08.18-.08.3-.26.3-.46v-7.17c0-.28-.22-.5-.5-.5h-7.17c-.2,0-.38.12-.46.3-.08.18-.05.39.08.54l2.07,2.31-4.63,4.68-8.36-2.49ZM42.57,39.08l5.17-5.23c.19-.19.19-.49.02-.69l-1.64-1.82h5.55v5.55l-1.71-1.54c-.2-.18-.5-.17-.69.02l-6.17,6.23-8.36-2.49c-.17-.05-.36,0-.49.12l-5.16,5.08-.71-2.36,5.32-5.24,8.36,2.49c.18.05.37,0,.5-.13Z"/></svg>