<?xml version="1.0" encoding="UTF-8"?><svg id="a" xmlns="http://www.w3.org/2000/svg" viewBox="0 0 80 80"><defs><style>.b{fill:#fff;}.c{fill:#fcb716;}</style></defs><rect class="c" y="0" width="80" height="80" rx="9" ry="9"/><path class="b" d="M48.34,63.41c-1.29-.63-2.57-.69-3.51-.6-.16-.27-.26-.55-.32-.84-.11-.58.16-1.07.52-1.75.17-.31.35-.65.52-1.04.42-.97.67-2.04.76-3.22v-4.31s0-.08-.01-.11c-.23-.97-.66-1.82-1.29-2.52-1.73-1.92-4.27-1.89-5.11-1.88-.89.01-3.24.04-4.91,1.88-.63.7-1.07,1.55-1.29,2.52,0,.04-.01.08-.01.11v4.34c.08,1.14.34,2.21.76,3.18.17.39.35.72.52,1.04.37.67.63,1.16.52,1.75-.05.29-.16.57-.32.84-.94-.09-2.22-.04-3.51.6-2.29,1.13-3.76,3.65-3.81,6.58,0,.13.05.26.14.36.09.1.22.15.36.15h23.3c.13,0,.26-.05.36-.15.09-.1.15-.23.14-.36-.06-2.93-1.52-5.46-3.81-6.58ZM28.88,69.5c.19-2.34,1.4-4.3,3.23-5.19,1.21-.6,2.43-.58,3.24-.47.18.02.37-.05.47-.2.34-.46.56-.96.65-1.49.17-.93-.22-1.65-.63-2.4-.16-.29-.33-.6-.48-.96-.38-.87-.6-1.83-.68-2.82v-4.25c.19-.78.54-1.46,1.05-2.02,1.37-1.51,3.41-1.54,4.18-1.55.79,0,2.92-.04,4.35,1.55.5.56.86,1.24,1.05,2.02v4.21c-.07,1.03-.3,1.99-.68,2.86-.15.36-.32.67-.48.96-.41.76-.8,1.47-.63,2.4.1.53.32,1.03.65,1.49.11.15.29.22.47.2.81-.12,2.03-.13,3.24.47,1.83.9,3.03,2.86,3.23,5.19h-22.25ZM66.94,43.64c-1.17-.58-2.34-.63-3.19-.55-.13-.23-.22-.47-.27-.72-.09-.52.14-.96.47-1.56.16-.29.32-.6.48-.95.38-.89.62-1.87.69-2.95v-3.92s0-.08-.01-.11c-.21-.9-.61-1.68-1.19-2.32-1.59-1.76-3.92-1.74-4.69-1.73-.81,0-2.97.04-4.5,1.73-.57.63-.98,1.44-1.19,2.32,0,.04-.01.07-.01.11v3.96c.08,1.04.31,2.02.69,2.92.15.35.32.66.48.95.33.61.57,1.04.47,1.56-.05.25-.14.49-.27.72-.85-.08-2.02-.03-3.19.55-2.11,1.04-3.45,3.35-3.5,6.04,0,.13.05.26.14.36.09.1.22.15.36.15h21.23c.13,0,.26-.05.36-.15.09-.1.15-.23.14-.36-.05-2.69-1.39-5-3.5-6.04ZM49.24,49.18c.19-2.09,1.27-3.84,2.91-4.65,1.1-.54,2.2-.53,2.93-.42.18.03.37-.05.47-.2.31-.42.51-.88.6-1.37.16-.86-.2-1.52-.58-2.22-.14-.26-.3-.55-.44-.87-.34-.79-.55-1.66-.61-2.55v-3.86c.17-.69.5-1.32.94-1.82,1.24-1.37,3.08-1.39,3.77-1.4.73-.01,2.64-.03,3.93,1.4.45.5.77,1.11.94,1.82v3.83c-.06.93-.27,1.8-.61,2.59-.14.32-.29.61-.44.87-.38.7-.73,1.35-.58,2.22.09.49.29.95.6,1.37.11.15.29.22.47.2.73-.11,1.83-.12,2.93.42,1.64.8,2.72,2.56,2.91,4.65h-20.17ZM31.68,50.06c.09-.1.15-.23.14-.36-.05-2.69-1.39-5-3.5-6.04-.96-.47-2.06-.66-3.19-.55-.13-.23-.22-.47-.27-.72-.09-.52.14-.96.47-1.56.16-.29.32-.6.48-.95.38-.89.62-1.87.69-2.95v-3.92s0-.08-.01-.11c-.21-.9-.61-1.67-1.19-2.32-1.59-1.76-3.92-1.74-4.69-1.73-.81,0-2.98.04-4.5,1.73-.58.63-.99,1.44-1.19,2.32,0,.04-.01.07-.01.11v3.96c.08,1.05.31,2.03.69,2.92.15.35.32.66.48.95.33.61.57,1.04.47,1.56-.05.25-.14.5-.27.72-1.13-.11-2.23.08-3.19.55-2.11,1.03-3.45,3.35-3.5,6.04,0,.13.05.26.14.36.09.1.22.15.36.15h21.23c.13,0,.26-.05.36-.15ZM10.62,49.21c.19-2.09,1.27-3.84,2.91-4.65,1.09-.54,2.19-.53,2.93-.42.19.02.36-.05.47-.2.31-.42.51-.88.6-1.37.16-.86-.2-1.52-.58-2.22-.14-.26-.3-.55-.44-.87-.34-.79-.55-1.66-.61-2.55v-3.86c.17-.69.5-1.32.94-1.82,1.23-1.37,3.08-1.39,3.77-1.4.72-.01,2.64-.03,3.93,1.4.45.5.77,1.11.94,1.82v3.83c-.07.93-.27,1.81-.61,2.59-.14.32-.29.61-.44.87-.38.7-.73,1.35-.58,2.22.09.49.29.95.6,1.37.11.15.29.22.47.2.73-.1,1.84-.12,2.93.42,1.64.8,2.72,2.56,2.91,4.65H10.62ZM59.8,53.15v2.67c0,1.93-1.57,3.5-3.5,3.5h-3.94c-.28,0-.5-.22-.5-.5s.22-.5.5-.5h3.94c1.38,0,2.5-1.12,2.5-2.5v-2.67c0-.28.22-.5.5-.5s.5.22.5.5ZM27.65,59.33h-3.94c-1.93,0-3.5-1.57-3.5-3.5v-2.67c0-.28.22-.5.5-.5s.5.22.5.5v2.67c0,1.38,1.12,2.5,2.5,2.5h3.94c.28,0,.5.22.5.5s-.22.5-.5.5ZM20.2,25.91v-2.67c0-1.93,1.57-3.5,3.5-3.5h3.94c.28,0,.5.22.5.5s-.22.5-.5.5h-3.94c-1.38,0-2.5,1.12-2.5,2.5v2.67c0,.28-.22.5-.5.5s-.5-.22-.5-.5ZM51.85,20.24c0-.28.22-.5.5-.5h3.94c1.93,0,3.5,1.57,3.5,3.5v2.67c0,.28-.22.5-.5.5s-.5-.22-.5-.5v-2.67c0-1.38-1.12-2.5-2.5-2.5h-3.94c-.28,0-.5-.22-.5-.5ZM39.5,13.05v-3.05c0-.28.22-.5.5-.5s.5.22.5.5v3.05c0,.28-.22.5-.5.5s-.5-.22-.5-.5ZM29.66,15.13c-.2-.2-.2-.51,0-.71s.51-.2.71,0l2.06,2.06c.2.2.2.51,0,.71-.1.1-.23.15-.35.15s-.26-.05-.35-.15l-2.06-2.06ZM47.58,17.19c-.2-.2-.2-.51,0-.71l2.06-2.06c.2-.2.51-.2.71,0s.2.51,0,.71l-2.06,2.06c-.1.1-.23.15-.35.15s-.26-.05-.35-.15ZM31.42,24.8c.12,1.21.65,3.05,1.77,4.59.08.11.17.23.27.36.41.53.92,1.2,1.4,2.23.22.47.41.96.56,1.46v3c0,.28.22.5.5.5h.57v2.58c0,.28.22.5.5.5h6c.28,0,.5-.22.5-.5v-2.58h.58c.28,0,.5-.22.5-.5v-2.99c.16-.5.34-.99.56-1.46.49-1.03.99-1.69,1.4-2.23.1-.13.19-.25.27-.36,1.12-1.53,1.65-3.38,1.77-4.59.26-2.56-.94-5.39-3.06-7.22-1.61-1.39-3.52-2.13-5.53-2.13h0c-2,0-3.91.74-5.53,2.13-2.12,1.83-3.32,4.66-3.06,7.22ZM42.5,39h-5v-2.08h5v2.08ZM43.57,35.93h-7.15v-2.08h7.15v2.08ZM37.88,25.43c-1.35-.02-2.24-.57-2.41-1.13-.08-.26-.1-.77.19-1.06.12-.12.34-.26.75-.26.02,0,.04,0,.06,0,.16,0,.31.04.46.1.56.24.94.88.94,1.59v.76ZM38.88,26.42h2.14s0,0,0,0h.09s0,6.43,0,6.43h-2.23v-6.43ZM35.13,18.34c1.43-1.23,3.11-1.89,4.87-1.89h0c1.76,0,3.45.65,4.87,1.89,1.88,1.62,2.94,4.12,2.72,6.36-.11,1.08-.58,2.73-1.59,4.1-.08.11-.16.22-.25.34-.42.54-.98,1.28-1.51,2.41-.2.42-.37.86-.52,1.3h-1.59v-6.42c1.68-.03,3.03-.74,3.37-1.84.19-.61.13-1.48-.42-2.05-.26-.28-.77-.61-1.57-.57-.28,0-.56.07-.82.18-.94.4-1.55,1.39-1.55,2.51v.75h-2.14s0,0,0,0h-.09s0-.75,0-.75c0-1.13-.61-2.11-1.55-2.51-.27-.11-.54-.18-.82-.18-.81-.03-1.31.29-1.57.57-.55.57-.61,1.44-.42,2.05.34,1.1,1.7,1.82,3.37,1.84v6.42h-1.59c-.15-.44-.33-.88-.52-1.3-.53-1.13-1.1-1.87-1.51-2.41-.09-.12-.18-.23-.26-.34-1-1.37-1.48-3.02-1.59-4.1-.23-2.24.84-4.74,2.72-6.36ZM42.12,25.43v-.76c0-.71.38-1.35.94-1.59.15-.06.31-.1.46-.1.02,0,.04,0,.06,0,.41,0,.63.14.75.26.29.3.27.8.19,1.06-.17.56-1.05,1.11-2.41,1.13Z"/></svg>