<?xml version="1.0" encoding="UTF-8"?><svg id="a" xmlns="http://www.w3.org/2000/svg" viewBox="0 0 60 60"><defs><style>.b{fill:#fbb900;}</style></defs><path d="M16.13,19.46v11.82c0,.27.22.49.49.49s.49-.22.49-.49v-11.82c0-1.33,1.08-2.41,2.41-2.41h20.83c1.33,0,2.41,1.08,2.41,2.41v20.83c0,1.33-1.08,2.41-2.41,2.41h-20.83c-1.33,0-2.41-1.08-2.41-2.41v-5.02c0-.27-.22-.49-.49-.49s-.49.22-.49.49v5.02c0,1.87,1.52,3.39,3.39,3.39h20.83c1.87,0,3.39-1.52,3.39-3.39v-20.83c0-1.87-1.52-3.39-3.39-3.39h-20.83c-1.87,0-3.39,1.52-3.39,3.39Z"/><path d="M22.1,4.69c2.61.67,4.56,3.74,4.54,7.13,0,.27.22.49.49.5h0c.27,0,.49-.22.49-.49.03-3.83-2.24-7.31-5.27-8.09-.27-.07-.53.09-.6.35-.07.26.09.53.35.6Z"/><path d="M27.11,47.53c-.27.01-.48.24-.47.51.04.96-.07,3.41-1.82,5.41-2.07,2.35-5.75,3.15-8.74,1.9-3.53-1.48-4.56-5.13-4.85-7.18-.48-3.28.8-5.89,1.61-7.15.15-.23.08-.53-.15-.68-.23-.14-.53-.08-.68.15-.84,1.32-2.14,4-1.79,7.38-2.49.66-5.07.02-6.65-1.7-1.74-1.89-1.59-4.34-1.56-4.62.16-1.91,1.21-3.19,2.92-5.13,1.39-1.58,2.61-2.52,3.67-3.35,1.4-1.08,2.6-2.02,3.56-3.91.57-1.13.93-2.36,1.09-3.67.03-.27-.16-.51-.43-.55-.26-.04-.51.16-.55.43-.14,1.19-.47,2.32-.99,3.34-.85,1.69-1.93,2.52-3.28,3.58-1.03.8-2.18,1.7-3.51,3.15-.94-.69-3.56-2.97-3.49-6.61.05-2.88,1.74-5.49,4.34-6.82.44,1.09,1.08,2.12,1.92,3.01.1.1.23.16.36.16.12,0,.24-.04.34-.13.2-.19.21-.5.02-.69-1.63-1.74-2.47-4.03-2.32-6.3.13-1.87.92-3.54,2.19-4.56,2.01-1.63,5.19-1.71,7.91-.21.23.13.54.05.67-.19.13-.24.05-.54-.19-.67-.73-.41-1.5-.7-2.27-.9.39-2.93,2.23-5.45,4.79-6.5.25-.1.37-.39.27-.64-.1-.25-.39-.37-.64-.27-2.87,1.17-4.92,3.98-5.38,7.23-2.14-.31-4.24.14-5.77,1.39-1.47,1.2-2.4,3.12-2.55,5.26-.07,1.04.06,2.09.35,3.1C2.01,22.55.06,25.53,0,28.82c-.07,4.03,2.68,6.52,3.82,7.37-1.43,1.63-2.62,3.13-2.8,5.28-.04.52-.16,3.21,1.82,5.36,1.36,1.48,3.35,2.28,5.45,2.28.67,0,1.36-.11,2.04-.28.42,2.31,1.67,5.88,5.36,7.42,1.1.46,2.26.68,3.41.68,2.44,0,4.84-1,6.45-2.84,1.99-2.26,2.11-5.01,2.07-6.09-.01-.27-.26-.47-.51-.47Z"/><path d="M56.41,49.99c-1.81,0-3.3,1.35-3.54,3.1h-4.98c-.27,0-.49.22-.49.49s.22.49.49.49h4.98c.24,1.75,1.73,3.1,3.54,3.1,1.98,0,3.59-1.61,3.59-3.59s-1.61-3.59-3.59-3.59ZM56.41,56.2c-1.44,0-2.61-1.17-2.61-2.61s1.17-2.61,2.61-2.61,2.61,1.17,2.61,2.61-1.17,2.61-2.61,2.61Z"/><path d="M56.41,17.01c-1.81,0-3.3,1.35-3.54,3.1h-2.41c-.12,0-.24.05-.34.13l-4.06,3.81c-.2.19-.21.5-.02.7.1.1.23.16.36.16.12,0,.24-.04.34-.13l3.91-3.67h2.22c.24,1.75,1.73,3.1,3.54,3.1,1.98,0,3.59-1.61,3.59-3.59s-1.61-3.59-3.59-3.59ZM56.41,23.21c-1.44,0-2.61-1.17-2.61-2.61s1.17-2.61,2.61-2.61,2.61,1.17,2.61,2.61-1.17,2.61-2.61,2.61Z"/><path d="M56.41,26.47c-1.81,0-3.3,1.35-3.54,3.1h-6.47c-.27,0-.49.22-.49.49s.22.49.49.49h6.47c.24,1.75,1.73,3.1,3.54,3.1,1.98,0,3.59-1.61,3.59-3.59s-1.61-3.59-3.59-3.59ZM56.41,32.67c-1.44,0-2.61-1.17-2.61-2.61s1.17-2.61,2.61-2.61,2.61,1.17,2.61,2.61-1.17,2.61-2.61,2.61Z"/><path d="M56.41,35.92c-1.81,0-3.3,1.35-3.54,3.1h-2.22l-3.91-3.67c-.2-.19-.51-.18-.69.02-.19.2-.18.51.02.69l4.06,3.81c.09.09.21.13.34.13h2.41c.24,1.75,1.73,3.1,3.54,3.1,1.98,0,3.59-1.61,3.59-3.59s-1.61-3.59-3.59-3.59ZM56.41,42.13c-1.44,0-2.61-1.17-2.61-2.61s1.17-2.61,2.61-2.61,2.61,1.17,2.61,2.61-1.17,2.61-2.61,2.61Z"/><path d="M44.59,53.1h-4.34l-6.23-6.58c-.19-.2-.5-.2-.7-.02-.2.19-.21.5-.02.7l6.38,6.73c.09.1.22.15.36.15h4.55c.27,0,.49-.22.49-.49s-.22-.49-.49-.49Z"/><path d="M33.65,13.63c.13,0,.26-.05.36-.15l6.23-6.58h12.62c.24,1.75,1.73,3.1,3.54,3.1,1.98,0,3.59-1.61,3.59-3.59s-1.61-3.59-3.59-3.59c-1.81,0-3.3,1.35-3.54,3.1h-12.83c-.14,0-.26.06-.36.15l-6.38,6.73c-.19.2-.18.51.02.7.1.09.22.13.34.13ZM56.41,3.8c1.44,0,2.61,1.17,2.61,2.61s-1.17,2.61-2.61,2.61-2.61-1.17-2.61-2.61,1.17-2.61,2.61-2.61Z"/><path class="b" d="M39.89,23.95c0-.21-.13-.39-.32-.46l-1.24-.46h0c-.23-.09-.42-.27-.5-.5l-.46-1.24c-.14-.39-.78-.39-.92,0l-.46,1.24c-.09.23-.27.42-.5.5l-1.24.46c-.19.07-.32.26-.32.46s.13.39.32.46l1.24.46c.23.09.42.27.5.5l.46,1.24c.07.19.26.32.46.32s.39-.13.46-.32l.46-1.24c.09-.23.27-.42.5-.5l1.24-.46c.19-.07.32-.26.32-.46ZM36.9,25.03c-.19-.5-.58-.89-1.08-1.08.5-.19.89-.58,1.08-1.08.19.5.58.89,1.08,1.08-.5.19-.89.58-1.08,1.08Z"/><path class="b" d="M29.01,23.49c-.2-.19-.46-.28-.79-.28h-2.14c-.32,0-.58.09-.79.27-.18.16-.3.35-.36.54l-4.74,12.68c-.05.12-.08.25-.08.37,0,.25.1.48.29.66.18.16.39.25.62.25h1.71c.32,0,.57-.09.75-.27.14-.14.24-.29.28-.42l.8-2.09h5.17l.8,2.06c.05.16.15.3.29.44.18.18.43.27.75.27h1.71c.23,0,.45-.09.63-.26.17-.17.26-.39.26-.64,0-.08,0-.17-.05-.35l-4.75-12.71c-.08-.2-.2-.37-.36-.52ZM31.57,36.99l-.11-.06-.92-2.4c-.07-.19-.26-.32-.46-.32h-5.85c-.2,0-.39.12-.46.32l-.93,2.42-1.7.05,4.73-12.66s.03-.07.08-.12c0,0,.05-.02.14-.02h2.14c.09,0,.12.02.12.02.05.05.09.1.11.16l4.7,12.63h-1.58Z"/><path class="b" d="M27.14,25.87h0c-.21,0-.39.13-.46.32l-2.23,6.08c-.05.15-.03.32.06.45.09.13.24.21.4.21h4.47c.16,0,.31-.08.4-.21.09-.13.11-.3.06-.45l-2.24-6.08c-.07-.19-.26-.32-.46-.32ZM25.62,31.95l1.52-4.17,1.54,4.17h-3.06Z"/><path class="b" d="M35.98,27.68c-.23,0-.43.06-.61.18-.23.15-.35.38-.35.63v8.67c0,.25.12.48.36.63.17.12.38.18.61.18h1.85c.25,0,.46-.06.63-.19.21-.15.33-.38.33-.63v-8.67c0-.25-.12-.47-.33-.62-.17-.12-.38-.19-.63-.19h-1.85ZM37.81,36.99h-1.81v-8.33h1.81v8.33Z"/><path class="b" d="M16.62,33.8c.27,0,.5-.22.5-.5s-.22-.5-.5-.5-.5.22-.5.5.22.5.5.5Z"/><path class="b" d="M46.23,53.09c-.27,0-.5.22-.5.5s.22.5.5.5.5-.22.5-.5-.22-.5-.5-.5Z"/><path class="b" d="M20.34,4.56c.27,0,.5-.22.5-.5s-.22-.5-.5-.5-.5.22-.5.5.22.5.5.5Z"/></svg>